<svg data-v-423bf9ae="" xmlns="http://www.w3.org/2000/svg" viewBox="0 0 398.76750729213575 60" class="font"><!----><!----><!----><g data-v-423bf9ae="" id="02b8bb87-a988-4df6-8d18-dfa56c52e656" fill="black" transform="matrix(5.602240876404433,0,0,5.602240876404433,-6.274511465943448,-0.7282918832654595)"><path d="M4.27 0.34L4.27 0.34L1.27 0.34C1.19 0.34 1.12 0.41 1.12 0.49L1.12 10.50C1.12 10.58 1.19 10.65 1.27 10.65C1.37 10.65 1.44 10.58 1.44 10.50L1.44 0.66L4.27 0.66C6.59 0.66 8.08 1.90 8.72 3.51C9.23 4.76 9.23 6.23 8.72 7.48C8.08 9.09 6.59 10.33 4.27 10.33L3.26 10.33C3.16 10.33 3.09 10.40 3.09 10.50C3.09 10.58 3.16 10.65 3.26 10.65L4.27 10.65C6.75 10.65 8.33 9.31 9.02 7.60C9.56 6.27 9.56 4.72 9.02 3.39C8.33 1.67 6.75 0.34 4.27 0.34ZM3.44 6.50L3.44 6.50L3.44 2.65L4.27 2.65C5.59 2.65 6.43 3.39 6.80 4.33C7.08 5.05 7.08 5.92 6.80 6.66C6.43 7.60 5.59 8.33 4.27 8.33L3.28 8.33C3.19 8.33 3.11 8.41 3.11 8.50C3.11 8.58 3.19 8.67 3.28 8.67L4.27 8.67C5.74 8.67 6.69 7.84 7.10 6.78C7.42 5.96 7.42 5.03 7.10 4.20C6.69 3.15 5.74 2.32 4.27 2.32L3.28 2.32C3.19 2.32 3.11 2.39 3.11 2.49L3.11 6.50C3.11 6.58 3.19 6.65 3.28 6.65C3.36 6.65 3.44 6.58 3.44 6.50ZM13.64 10.50L13.64 10.50L13.64 0.49C13.64 0.41 13.57 0.34 13.48 0.34C13.38 0.34 13.31 0.41 13.31 0.49L13.31 10.50C13.31 10.58 13.38 10.65 13.48 10.65C13.57 10.65 13.64 10.58 13.64 10.50ZM11.63 10.50L11.63 10.50L11.63 0.49C11.63 0.41 11.56 0.34 11.48 0.34C11.38 0.34 11.31 0.41 11.31 0.49L11.31 10.50C11.31 10.58 11.38 10.65 11.48 10.65C11.56 10.65 11.63 10.58 11.63 10.50ZM23.28 0.38L23.28 0.38L20.36 5.07C20.33 5.12 20.33 5.19 20.36 5.24L23.66 10.57C23.70 10.64 23.81 10.67 23.90 10.63C23.97 10.58 24.00 10.49 23.94 10.40L20.69 5.15L23.55 0.56C23.59 0.48 23.58 0.36 23.49 0.32C23.42 0.28 23.32 0.29 23.28 0.38ZM21.48 10.42L21.48 10.42L19.56 7.29C19.49 7.20 19.33 7.20 19.26 7.29L17.35 10.42C17.29 10.49 17.32 10.58 17.39 10.63C17.47 10.68 17.57 10.65 17.61 10.58L19.42 7.69L21.21 10.58C21.25 10.65 21.35 10.68 21.43 10.64C21.50 10.58 21.53 10.49 21.48 10.42ZM15.16 10.57L15.16 10.57L18.47 5.24C18.49 5.19 18.49 5.12 18.47 5.07L15.54 0.38C15.50 0.29 15.40 0.28 15.33 0.32C15.26 0.36 15.23 0.48 15.27 0.56L18.13 5.15L14.88 10.40C14.84 10.49 14.85 10.58 14.92 10.63C15.01 10.67 15.12 10.64 15.16 10.57ZM17.60 0.55L17.60 0.55L19.26 3.23C19.33 3.33 19.49 3.33 19.56 3.23L21.22 0.55C21.27 0.48 21.24 0.36 21.17 0.32C21.10 0.28 20.99 0.29 20.93 0.38L19.42 2.84L17.89 0.38C17.84 0.29 17.72 0.28 17.65 0.32C17.58 0.36 17.56 0.48 17.60 0.55ZM27.52 10.50L27.52 10.50L27.52 0.49C27.52 0.41 27.45 0.34 27.37 0.34C27.27 0.34 27.20 0.41 27.20 0.49L27.20 10.50C27.20 10.58 27.27 10.65 27.37 10.65C27.45 10.65 27.52 10.58 27.52 10.50ZM25.52 10.50L25.52 10.50L25.52 0.49C25.52 0.41 25.45 0.34 25.37 0.34C25.27 0.34 25.20 0.41 25.20 0.49L25.20 10.50C25.20 10.58 25.27 10.65 25.37 10.65C25.45 10.65 25.52 10.58 25.52 10.50ZM32.10 10.50L32.10 10.50L32.10 0.49C32.10 0.41 32.03 0.34 31.95 0.34C31.85 0.34 31.78 0.41 31.78 0.49L31.78 10.50C31.78 10.58 31.85 10.65 31.95 10.65C32.03 10.65 32.10 10.58 32.10 10.50ZM30.10 10.50L30.10 10.50L30.10 0.49C30.10 0.41 30.03 0.34 29.95 0.34C29.85 0.34 29.78 0.41 29.78 0.49L29.78 10.50C29.78 10.58 29.85 10.65 29.95 10.65C30.03 10.65 30.10 10.58 30.10 10.50ZM42.25 4.65L42.25 4.65C42.91 4.65 43.44 4.16 43.44 3.50C43.44 2.83 42.91 2.34 42.25 2.34L40.49 2.34C40.28 2.34 40.28 2.66 40.49 2.66L42.25 2.66C42.73 2.66 43.12 3.01 43.12 3.50C43.12 3.98 42.73 4.34 42.25 4.34L41.69 4.34C41.59 4.34 41.52 4.41 41.52 4.49C41.52 4.58 41.59 4.65 41.69 4.65ZM43.22 10.40L43.22 10.40L40.61 6.93C40.56 6.86 40.46 6.85 40.39 6.89C40.35 6.93 40.32 6.99 40.33 7.03L40.33 10.50C40.33 10.58 40.40 10.67 40.49 10.67C40.57 10.67 40.66 10.58 40.66 10.50L40.66 7.50L42.95 10.58C43.01 10.67 43.12 10.68 43.19 10.63C43.26 10.57 43.27 10.47 43.22 10.40ZM38.65 10.50L38.65 10.50L38.65 0.66L42.42 0.66C43.99 0.66 45.22 1.95 45.22 3.50C45.22 5.04 43.99 6.33 42.42 6.33C42.34 6.33 42.27 6.40 42.27 6.50C42.27 6.54 42.28 6.58 42.31 6.61L45.39 10.58C45.46 10.67 45.56 10.68 45.63 10.61C45.70 10.57 45.71 10.47 45.65 10.40L42.76 6.65C44.35 6.48 45.56 5.10 45.56 3.50C45.56 1.76 44.17 0.32 42.42 0.32L38.49 0.32C38.40 0.32 38.33 0.41 38.33 0.49L38.33 10.50C38.33 10.58 38.40 10.67 38.49 10.67C38.58 10.67 38.65 10.58 38.65 10.50ZM57.20 3.86L57.20 3.86C56.49 1.64 54.36 0.13 52.02 0.13C48.86 0.13 46.68 2.39 46.68 5.47C46.68 8.57 48.86 10.84 52.02 10.84C54.36 10.84 56.49 9.34 57.20 7.08C57.23 7 57.18 6.90 57.09 6.87C56.99 6.85 56.91 6.89 56.88 6.99C56.21 9.10 54.24 10.50 52.02 10.50C49.06 10.50 47.00 8.39 47.00 5.47C47.00 2.56 49.06 0.46 52.02 0.46C54.24 0.46 56.21 1.86 56.88 3.96C56.91 4.06 56.99 4.10 57.09 4.07C57.18 4.06 57.23 3.95 57.20 3.86ZM49.22 7.11L49.22 7.11C49.80 8.12 50.86 8.76 52.02 8.76C53.83 8.76 55.26 7.27 55.26 5.47C55.26 3.70 53.83 2.20 52.02 2.20C50.86 2.20 49.80 2.83 49.22 3.84C49.18 3.92 49.21 4.02 49.28 4.07C49.36 4.12 49.48 4.09 49.52 4.00C50.02 3.09 50.97 2.52 52.02 2.52C53.65 2.52 54.92 3.86 54.92 5.47C54.92 7.08 53.65 8.43 52.02 8.43C50.97 8.43 50.02 7.85 49.52 6.94C49.48 6.87 49.36 6.85 49.28 6.89C49.21 6.93 49.18 7.04 49.22 7.11ZM58.72 9.98L58.72 9.98C59.28 10.26 59.81 10.44 60.31 10.56C62.86 11.16 65.11 10.07 65.11 7.53C65.11 5.00 62.05 4.48 61.42 4.00C61.22 3.85 61.11 3.63 61.11 3.42C61.10 2.94 61.47 2.69 61.89 2.63C62.55 2.56 63.41 2.83 63.90 3.02C64.09 3.11 64.22 2.81 64.02 2.73C63.21 2.39 62.58 2.27 61.91 2.31C61.26 2.34 60.76 2.81 60.79 3.46C60.87 4.73 62.61 4.47 63.98 5.75C65.17 6.85 64.96 8.60 64.01 9.56C62.76 10.81 60.49 10.54 58.88 9.70C58.69 9.60 58.53 9.88 58.72 9.98ZM64.27 0.71L64.27 0.71C63.62 0.49 63.11 0.38 62.72 0.32C60.47 0.01 58.77 1.32 58.77 3.49C58.77 6.09 61.84 6.45 62.50 7C62.82 7.29 62.87 7.80 62.54 8.11C61.84 8.75 60.03 8.23 59.15 7.62C58.98 7.50 58.79 7.76 58.97 7.88C59.86 8.54 61.00 8.76 61.88 8.71C62.54 8.67 63.13 8.20 63.08 7.55C63 6.26 61.29 6.50 59.92 5.31C58.72 4.23 58.94 2.45 59.84 1.48C60.94 0.28 62.66 0.49 64.16 1.01C64.36 1.09 64.47 0.78 64.27 0.71ZM71.20 6.33L71.20 6.33L68.96 6.33C68.87 6.33 68.80 6.40 68.80 6.50L68.80 8.50C68.80 8.58 68.87 8.65 68.96 8.65L72.14 8.65C72.23 8.65 72.30 8.58 72.30 8.50C72.30 8.40 72.23 8.33 72.14 8.33L69.12 8.33L69.12 6.65L71.20 6.65C71.30 6.65 71.37 6.58 71.37 6.50C71.37 6.40 71.30 6.33 71.20 6.33ZM72.14 2.34L72.14 2.34L68.96 2.34C68.87 2.34 68.80 2.41 68.80 2.49L68.80 4.49C68.80 4.58 68.87 4.66 68.96 4.66L71.20 4.66C71.30 4.66 71.37 4.58 71.37 4.49C71.37 4.41 71.30 4.33 71.20 4.33L69.12 4.33L69.12 2.66L72.14 2.66C72.23 2.66 72.30 2.59 72.30 2.49C72.30 2.41 72.23 2.34 72.14 2.34ZM72.14 10.33L72.14 10.33L67.12 10.33L67.12 0.66L72.14 0.66C72.23 0.66 72.30 0.59 72.30 0.49C72.30 0.41 72.23 0.34 72.14 0.34L66.96 0.34C66.86 0.34 66.79 0.41 66.79 0.49L66.79 10.50C66.79 10.58 66.86 10.65 66.96 10.65L72.14 10.65C72.23 10.65 72.30 10.58 72.30 10.50C72.30 10.40 72.23 10.33 72.14 10.33Z"></path></g><!----><!----></svg>