<svg data-v-423bf9ae="" xmlns="http://www.w3.org/2000/svg" viewBox="0 0 564.4307767427885 60" class="font"><!----><!----><!----><g data-v-423bf9ae="" id="2b19a560-12de-41e0-99cc-a72407bb51d4" fill="white" transform="matrix(6.153846153846154,0,0,6.153846153846154,-9.723073665912352,-6.584615349769592)"><path d="M11.83 5.93L11.83 5.93L11.83 5.93Q11.83 6.84 11.65 7.54L11.65 7.54L11.65 7.54Q11.46 8.24 11.12 8.76L11.12 8.76L11.12 8.76Q10.77 9.28 10.28 9.64L10.28 9.64L10.28 9.64Q9.80 10.00 9.20 10.22L9.20 10.22L9.20 10.22Q8.60 10.44 7.90 10.54L7.90 10.54L7.90 10.54Q7.20 10.64 6.43 10.64L6.43 10.64L1.58 10.64L1.58 1.24L6.41 1.24L6.41 1.24Q7.57 1.24 8.56 1.47L8.56 1.47L8.56 1.47Q9.55 1.70 10.28 2.24L10.28 2.24L10.28 2.24Q11.01 2.78 11.42 3.68L11.42 3.68L11.42 3.68Q11.83 4.59 11.83 5.93ZM10.95 5.93L10.95 5.93L10.95 5.93Q10.95 5.17 10.80 4.58L10.80 4.58L10.80 4.58Q10.65 3.99 10.37 3.56L10.37 3.56L10.37 3.56Q10.09 3.12 9.69 2.83L9.69 2.83L9.69 2.83Q9.28 2.54 8.78 2.35L8.78 2.35L8.78 2.35Q8.27 2.17 7.68 2.10L7.68 2.10L7.68 2.10Q7.08 2.02 6.41 2.02L6.41 2.02L2.43 2.02L2.43 9.85L6.41 9.85L6.41 9.85Q7.42 9.85 8.25 9.67L8.25 9.67L8.25 9.67Q9.08 9.49 9.68 9.04L9.68 9.04L9.68 9.04Q10.28 8.59 10.62 7.84L10.62 7.84L10.62 7.84Q10.95 7.08 10.95 5.93ZM15.18 10.64L14.32 10.64L14.32 1.24L15.18 1.24L15.18 10.64ZM26.58 10.64L22.52 6.39L18.47 10.64L17.39 10.64L21.98 5.82L17.62 1.24L18.70 1.24L22.52 5.26L26.35 1.24L27.43 1.24L23.06 5.82L27.65 10.64L26.58 10.64ZM30.70 10.64L29.85 10.64L29.85 1.24L30.70 1.24L30.70 10.64ZM43.33 9.15L43.33 10.14L43.33 10.14Q42.76 10.32 42.27 10.45L42.27 10.45L42.27 10.45Q41.77 10.58 41.30 10.65L41.30 10.65L41.30 10.65Q40.82 10.73 40.32 10.77L40.32 10.77L40.32 10.77Q39.83 10.81 39.23 10.81L39.23 10.81L39.23 10.81Q37.85 10.81 36.74 10.47L36.74 10.47L36.74 10.47Q35.62 10.14 34.84 9.51L34.84 9.51L34.84 9.51Q34.06 8.89 33.63 8.00L33.63 8.00L33.63 8.00Q33.21 7.11 33.21 6.00L33.21 6.00L33.21 6.00Q33.21 4.93 33.62 4.03L33.62 4.03L33.62 4.03Q34.02 3.14 34.75 2.50L34.75 2.50L34.75 2.50Q35.49 1.85 36.50 1.50L36.50 1.50L36.50 1.50Q37.52 1.14 38.75 1.14L38.75 1.14L38.75 1.14Q40.03 1.14 41.03 1.48L41.03 1.48L41.03 1.48Q42.03 1.83 42.71 2.46L42.71 2.46L42.71 2.46Q43.39 3.10 43.75 4.00L43.75 4.00L43.75 4.00Q44.11 4.91 44.11 6.04L44.11 6.04L44.11 6.25L34.09 6.25L34.09 6.25Q34.17 7.13 34.53 7.83L34.53 7.83L34.53 7.83Q34.89 8.54 35.56 9.03L35.56 9.03L35.56 9.03Q36.22 9.52 37.20 9.79L37.20 9.79L37.20 9.79Q38.17 10.05 39.47 10.05L39.47 10.05L39.47 10.05Q40.02 10.05 40.59 9.97L40.59 9.97L40.59 9.97Q41.16 9.90 41.68 9.77L41.68 9.77L41.68 9.77Q42.20 9.65 42.63 9.48L42.63 9.48L42.63 9.48Q43.06 9.32 43.33 9.15L43.33 9.15ZM34.09 5.51L43.26 5.51L43.26 5.51Q43.22 4.79 42.94 4.14L42.94 4.14L42.94 4.14Q42.67 3.49 42.13 2.99L42.13 2.99L42.13 2.99Q41.58 2.49 40.75 2.19L40.75 2.19L40.75 2.19Q39.91 1.90 38.74 1.90L38.74 1.90L38.74 1.90Q37.64 1.90 36.81 2.19L36.81 2.19L36.81 2.19Q35.98 2.49 35.41 2.98L35.41 2.98L35.41 2.98Q34.84 3.48 34.51 4.13L34.51 4.13L34.51 4.13Q34.18 4.79 34.09 5.51L34.09 5.51ZM51.28 6.62L47.46 6.62L47.46 10.64L46.61 10.64L46.61 1.24L51.28 1.24L51.28 1.24Q52.36 1.24 53.12 1.41L53.12 1.41L53.12 1.41Q53.89 1.58 54.38 1.92L54.38 1.92L54.38 1.92Q54.87 2.26 55.09 2.76L55.09 2.76L55.09 2.76Q55.32 3.27 55.32 3.94L55.32 3.94L55.32 3.94Q55.32 5.00 54.76 5.63L54.76 5.63L54.76 5.63Q54.21 6.26 52.98 6.49L52.98 6.49L56.18 10.64L55.11 10.64L52.08 6.59L52.08 6.59Q51.89 6.60 51.69 6.61L51.69 6.61L51.69 6.61Q51.50 6.62 51.28 6.62L51.28 6.62ZM54.43 3.94L54.43 3.94L54.43 3.94Q54.43 3.34 54.22 2.97L54.22 2.97L54.22 2.97Q54.01 2.60 53.53 2.39L53.53 2.39L53.53 2.39Q53.05 2.19 52.28 2.12L52.28 2.12L52.28 2.12Q51.50 2.04 50.37 2.04L50.37 2.04L47.46 2.04L47.46 5.82L50.35 5.82L50.35 5.82Q51.47 5.82 52.25 5.75L52.25 5.75L52.25 5.75Q53.03 5.69 53.52 5.49L53.52 5.49L53.52 5.49Q54.00 5.28 54.22 4.92L54.22 4.92L54.22 4.92Q54.43 4.55 54.43 3.94ZM69.54 5.95L69.54 5.95L69.54 5.95Q69.54 7.21 69.08 8.13L69.08 8.13L69.08 8.13Q68.63 9.05 67.83 9.65L67.83 9.65L67.83 9.65Q67.03 10.25 65.94 10.53L65.94 10.53L65.94 10.53Q64.85 10.82 63.59 10.82L63.59 10.82L63.59 10.82Q62.33 10.82 61.24 10.53L61.24 10.53L61.24 10.53Q60.14 10.25 59.34 9.65L59.34 9.65L59.34 9.65Q58.53 9.05 58.07 8.13L58.07 8.13L58.07 8.13Q57.61 7.21 57.61 5.95L57.61 5.95L57.61 5.95Q57.61 5.11 57.83 4.42L57.83 4.42L57.83 4.42Q58.04 3.73 58.42 3.19L58.42 3.19L58.42 3.19Q58.80 2.65 59.35 2.25L59.35 2.25L59.35 2.25Q59.89 1.85 60.56 1.59L60.56 1.59L60.56 1.59Q61.22 1.33 61.99 1.20L61.99 1.20L61.99 1.20Q62.75 1.07 63.59 1.07L63.59 1.07L63.59 1.07Q64.85 1.07 65.94 1.36L65.94 1.36L65.94 1.36Q67.03 1.65 67.83 2.25L67.83 2.25L67.83 2.25Q68.63 2.84 69.08 3.76L69.08 3.76L69.08 3.76Q69.54 4.68 69.54 5.95ZM68.66 5.95L68.66 5.95L68.66 5.95Q68.66 4.95 68.34 4.18L68.34 4.18L68.34 4.18Q68.01 3.42 67.38 2.90L67.38 2.90L67.38 2.90Q66.74 2.37 65.79 2.10L65.79 2.10L65.79 2.10Q64.85 1.83 63.59 1.83L63.59 1.83L63.59 1.83Q62.34 1.83 61.39 2.11L61.39 2.11L61.39 2.11Q60.44 2.38 59.79 2.90L59.79 2.90L59.79 2.90Q59.15 3.42 58.82 4.19L58.82 4.19L58.82 4.19Q58.50 4.96 58.50 5.95L58.50 5.95L58.50 5.95Q58.50 6.95 58.82 7.71L58.82 7.71L58.82 7.71Q59.15 8.48 59.79 9.00L59.79 9.00L59.79 9.00Q60.44 9.52 61.39 9.79L61.39 9.79L61.39 9.79Q62.34 10.06 63.59 10.06L63.59 10.06L63.59 10.06Q64.85 10.06 65.79 9.79L65.79 9.79L65.79 9.79Q66.74 9.52 67.38 9.00L67.38 9.00L67.38 9.00Q68.01 8.48 68.34 7.71L68.34 7.71L68.34 7.71Q68.66 6.95 68.66 5.95ZM79.63 1.65L79.63 2.63L79.63 2.63Q79.37 2.50 79.02 2.35L79.02 2.35L79.02 2.35Q78.67 2.21 78.22 2.09L78.22 2.09L78.22 2.09Q77.77 1.98 77.21 1.90L77.21 1.90L77.21 1.90Q76.65 1.82 75.97 1.82L75.97 1.82L75.97 1.82Q75.14 1.82 74.49 1.91L74.49 1.91L74.49 1.91Q73.85 2.01 73.40 2.21L73.40 2.21L73.40 2.21Q72.95 2.41 72.72 2.72L72.72 2.72L72.72 2.72Q72.48 3.03 72.48 3.45L72.48 3.45L72.48 3.45Q72.48 3.81 72.70 4.07L72.70 4.07L72.70 4.07Q72.93 4.34 73.31 4.55L73.31 4.55L73.31 4.55Q73.68 4.75 74.19 4.92L74.19 4.92L74.19 4.92Q74.70 5.09 75.27 5.23L75.27 5.23L75.27 5.23Q75.84 5.38 76.45 5.53L76.45 5.53L76.45 5.53Q77.05 5.68 77.63 5.85L77.63 5.85L77.63 5.85Q78.20 6.03 78.71 6.24L78.71 6.24L78.71 6.24Q79.21 6.46 79.59 6.75L79.59 6.75L79.59 6.75Q79.97 7.03 80.20 7.40L80.20 7.40L80.20 7.40Q80.42 7.77 80.42 8.26L80.42 8.26L80.42 8.26Q80.42 8.78 80.22 9.18L80.22 9.18L80.22 9.18Q80.02 9.57 79.68 9.85L79.68 9.85L79.68 9.85Q79.34 10.14 78.89 10.33L78.89 10.33L78.89 10.33Q78.44 10.51 77.92 10.62L77.92 10.62L77.92 10.62Q77.40 10.73 76.85 10.78L76.85 10.78L76.85 10.78Q76.30 10.82 75.77 10.82L75.77 10.82L75.77 10.82Q74.55 10.82 73.55 10.64L73.55 10.64L73.55 10.64Q72.56 10.47 71.65 10.16L71.65 10.16L71.65 9.11L71.65 9.11Q72.58 9.67 73.62 9.87L73.62 9.87L73.62 9.87Q74.66 10.08 75.80 10.08L75.80 10.08L75.80 10.08Q76.60 10.08 77.29 9.98L77.29 9.98L77.29 9.98Q77.97 9.88 78.47 9.68L78.47 9.68L78.47 9.68Q78.97 9.47 79.25 9.13L79.25 9.13L79.25 9.13Q79.52 8.80 79.52 8.31L79.52 8.31L79.52 8.31Q79.52 7.92 79.30 7.63L79.30 7.63L79.30 7.63Q79.08 7.33 78.70 7.11L78.70 7.11L78.70 7.11Q78.32 6.89 77.81 6.72L77.81 6.72L77.81 6.72Q77.30 6.55 76.73 6.40L76.73 6.40L76.73 6.40Q76.17 6.25 75.56 6.11L75.56 6.11L75.56 6.11Q74.96 5.97 74.39 5.81L74.39 5.81L74.39 5.81Q73.82 5.65 73.31 5.44L73.31 5.44L73.31 5.44Q72.80 5.24 72.42 4.96L72.42 4.96L72.42 4.96Q72.04 4.68 71.82 4.32L71.82 4.32L71.82 4.32Q71.60 3.96 71.60 3.48L71.60 3.48L71.60 3.48Q71.60 3.01 71.78 2.64L71.78 2.64L71.78 2.64Q71.96 2.28 72.27 2.01L72.27 2.01L72.27 2.01Q72.58 1.74 72.99 1.56L72.99 1.56L72.99 1.56Q73.41 1.38 73.89 1.27L73.89 1.27L73.89 1.27Q74.36 1.17 74.87 1.12L74.87 1.12L74.87 1.12Q75.39 1.07 75.89 1.07L75.89 1.07L75.89 1.07Q76.43 1.07 76.92 1.12L76.92 1.12L76.92 1.12Q77.41 1.17 77.86 1.25L77.86 1.25L77.86 1.25Q78.32 1.33 78.75 1.43L78.75 1.43L78.75 1.43Q79.19 1.53 79.63 1.65L79.63 1.65ZM92.53 9.15L92.53 10.14L92.53 10.14Q91.96 10.32 91.46 10.45L91.46 10.45L91.46 10.45Q90.97 10.58 90.49 10.65L90.49 10.65L90.49 10.65Q90.02 10.73 89.52 10.77L89.52 10.77L89.52 10.77Q89.02 10.81 88.43 10.81L88.43 10.81L88.43 10.81Q87.05 10.81 85.93 10.47L85.93 10.47L85.93 10.47Q84.82 10.14 84.04 9.51L84.04 9.51L84.04 9.51Q83.25 8.89 82.83 8.00L82.83 8.00L82.83 8.00Q82.41 7.11 82.41 6.00L82.41 6.00L82.41 6.00Q82.41 4.93 82.81 4.03L82.81 4.03L82.81 4.03Q83.22 3.14 83.95 2.50L83.95 2.50L83.95 2.50Q84.68 1.85 85.70 1.50L85.70 1.50L85.70 1.50Q86.72 1.14 87.95 1.14L87.95 1.14L87.95 1.14Q89.23 1.14 90.23 1.48L90.23 1.48L90.23 1.48Q91.23 1.83 91.91 2.46L91.91 2.46L91.91 2.46Q92.59 3.10 92.95 4.00L92.95 4.00L92.95 4.00Q93.30 4.91 93.30 6.04L93.30 6.04L93.30 6.25L83.29 6.25L83.29 6.25Q83.36 7.13 83.73 7.83L83.73 7.83L83.73 7.83Q84.09 8.54 84.76 9.03L84.76 9.03L84.76 9.03Q85.42 9.52 86.40 9.79L86.40 9.79L86.40 9.79Q87.37 10.05 88.67 10.05L88.67 10.05L88.67 10.05Q89.22 10.05 89.79 9.97L89.79 9.97L89.79 9.97Q90.36 9.90 90.88 9.77L90.88 9.77L90.88 9.77Q91.40 9.65 91.83 9.48L91.83 9.48L91.83 9.48Q92.26 9.32 92.53 9.15L92.53 9.15ZM83.29 5.51L92.46 5.51L92.46 5.51Q92.42 4.79 92.14 4.14L92.14 4.14L92.14 4.14Q91.87 3.49 91.32 2.99L91.32 2.99L91.32 2.99Q90.78 2.49 89.94 2.19L89.94 2.19L89.94 2.19Q89.11 1.90 87.94 1.90L87.94 1.90L87.94 1.90Q86.84 1.90 86.01 2.19L86.01 2.19L86.01 2.19Q85.18 2.49 84.61 2.98L84.61 2.98L84.61 2.98Q84.03 3.48 83.71 4.13L83.71 4.13L83.71 4.13Q83.38 4.79 83.29 5.51L83.29 5.51Z"></path></g><!----><!----></svg>